<?xml version="1.0" encoding="UTF-8"?>
<svg id="Layer_1" xmlns="http://www.w3.org/2000/svg" version="1.1" viewBox="0 0 256 256">
  <!-- Generator: Adobe Illustrator 29.0.1, SVG Export Plug-In . SVG Version: 2.1.0 Build 192)  -->
  <defs>
    <style>
      .st0 {
        fill: #fff;
      }

      .st1 {
        fill: #307f34;
      }
    </style>
  </defs>
  <rect class="st1" x="2.23" y="2.07" width="252.79" height="252.79" rx="58.84" ry="58.84"/>
  <g>
    <g id="_x3C_Radial_Repeat_x3E_">
      <rect class="st0" x="123.18" y="147.22" width="10.91" height="75.01" rx="5.13" ry="5.13" transform="translate(257.26 369.45) rotate(-180)"/>
    </g>
    <g id="_x3C_Radial_Repeat_x3E_1" data-name="_x3C_Radial_Repeat_x3E_">
      <rect class="st0" x="83.4" y="130.74" width="10.91" height="75.01" rx="5.13" ry="5.13" transform="translate(32.71 350.04) rotate(-135)"/>
    </g>
    <g id="_x3C_Radial_Repeat_x3E_2" data-name="_x3C_Radial_Repeat_x3E_">
      <rect class="st0" x="66.92" y="90.97" width="10.91" height="75.01" rx="5.13" ry="5.13" transform="translate(-56.09 200.84) rotate(-90)"/>
    </g>
    <g id="_x3C_Radial_Repeat_x3E_3" data-name="_x3C_Radial_Repeat_x3E_">
      <rect class="st0" x="83.4" y="51.19" width="10.91" height="75.01" rx="5.13" ry="5.13" transform="translate(-36.69 88.8) rotate(-45)"/>
    </g>
    <g id="_x3C_Radial_Repeat_x3E_4" data-name="_x3C_Radial_Repeat_x3E_">
      <rect class="st0" x="123.18" y="34.71" width="10.91" height="75.01" rx="5.13" ry="5.13"/>
    </g>
    <g id="_x3C_Radial_Repeat_x3E_5" data-name="_x3C_Radial_Repeat_x3E_">
      <rect class="st0" x="162.96" y="51.19" width="10.91" height="75.01" rx="5.13" ry="5.13" transform="translate(112.04 -93.11) rotate(45)"/>
    </g>
    <g id="_x3C_Radial_Repeat_x3E_6" data-name="_x3C_Radial_Repeat_x3E_">
      <rect class="st0" x="179.43" y="90.97" width="10.91" height="75.01" rx="5.13" ry="5.13" transform="translate(313.35 -56.41) rotate(90)"/>
    </g>
    <g id="_x3C_Radial_Repeat_x3E_7" data-name="_x3C_Radial_Repeat_x3E_">
      <rect class="st0" x="162.96" y="130.74" width="10.91" height="75.01" rx="5.13" ry="5.13" transform="translate(406.46 168.13) rotate(135)"/>
    </g>
  </g>
</svg>