<svg width="184" height="35" viewBox="0 0 184 35" fill="none" xmlns="http://www.w3.org/2000/svg">
<path d="M183.203 0.798789C182.699 0.293433 182.016 0 181.301 0H151.774C151.058 0 150.375 0.293433 149.871 0.798789C149.367 1.30415 149.091 1.98882 149.091 2.7061V3.03214V15.4052L154.473 12.9925V5.4122H179.984L184 4.43409V3.01584V2.6898C183.984 1.97252 183.707 1.30415 183.203 0.798789Z" fill="#1873C7" fill-opacity="0.2"/>
<path d="M183.707 3.45601C183.48 3.34189 178.602 4.46672 178.602 4.46672V8.57478V29.6204H154.473V19.5459L149.774 15.1118L149.091 15.1933V32.3102C149.091 33.0275 149.384 33.7122 149.871 34.2175C150.375 34.7229 151.058 35 151.774 35H181.301C182.016 35 182.699 34.7066 183.203 34.2175C183.707 33.7122 183.984 33.0275 183.984 32.3102V3.83095C183.984 3.83095 183.935 3.58642 183.707 3.45601Z" fill="url(#paint0_linear_899_13425)"/>
<path d="M182.732 3.4396C181.886 3.60262 179.854 3.92866 179.203 4.12428C179.025 4.17318 178.342 4.54813 177.886 4.93937C175.301 7.28683 160.912 20.0512 160.912 20.0512C160.912 20.0512 154.896 13.4815 154.717 13.2696C154.554 13.074 154.44 13.0088 154.196 13.0903C153.952 13.1718 149.53 14.7042 149.384 14.7531C149.221 14.8183 149.091 14.8835 149.091 15.128C149.091 15.3888 149.091 16.0083 149.091 15.7475C149.091 15.4866 149.14 15.0139 149.449 15.2421C149.676 15.4051 159.432 25.7894 159.432 25.7894C159.936 26.3274 160.635 26.6208 161.367 26.6371C162.098 26.6371 162.798 26.3437 163.318 25.8057L178.602 8.57467C178.602 8.57467 183.203 3.86345 183.415 3.63522C183.707 3.37439 183.967 3.60262 183.984 3.87975C183.984 3.3907 183.593 3.27658 182.732 3.4396Z" fill="#1873C7"/>
<path d="M47.461 25.4352H40.2961V28.701H47.461V25.4352Z" fill="url(#paint1_linear_899_13425)"/>
<path d="M57.8783 4.46252H50.7134V7.72833H57.8783V4.46252Z" fill="url(#paint2_linear_899_13425)"/>
<path d="M53.4573 16.505C53.4573 16.8622 53.3557 17.2194 53.2033 17.5256C53.0508 17.8317 52.7967 18.0869 52.4918 18.2399C52.187 18.393 51.8821 18.4951 51.5264 18.4951C51.1707 18.4951 50.8658 18.393 50.5609 18.2399C50.256 18.0869 50.0019 17.8317 49.8495 17.5256C49.697 17.2194 49.5954 16.8622 49.5954 16.505V10.4837L45.3778 11.5042V16.454C45.3778 16.8112 45.2761 17.1684 45.1237 17.4745C44.9204 17.7807 44.7172 18.0358 44.4123 18.1889C44.1074 18.342 43.7517 18.4441 43.396 18.4441H43.3452H38.2637H33.1313C32.7756 18.4441 32.4708 18.342 32.1659 18.1889C31.861 18.0358 31.6069 17.7807 31.4545 17.4745C31.302 17.1684 31.2004 16.8112 31.2004 16.454C31.2004 15.3313 30.9463 14.3108 30.3873 13.3412C29.8284 12.3717 29.0662 11.6573 28.1007 11.096C27.1352 10.5347 26.1189 10.2795 25.001 10.2795H15.3461L21.2407 6.86066L19.1064 3.64587L7.67306 10.2795V14.5149H25.001C25.3567 14.5149 25.6615 14.6169 25.9664 14.77C26.2713 14.9231 26.5254 15.1783 26.6778 15.4844C26.8303 15.7906 26.9319 16.0968 26.9319 16.454C26.9319 16.8112 26.8303 17.1684 26.6778 17.4745C26.5254 17.7807 26.2713 18.0358 25.9664 18.1889C25.6615 18.342 25.3567 18.4441 25.001 18.4441H6.19942C5.84372 18.4441 5.53883 18.342 5.18312 18.1889C4.82742 18.0358 4.62416 17.7807 4.47172 17.4745C4.31927 17.1684 4.21764 16.8112 4.21764 16.454V10.4326L0 11.4532V16.4029C0 17.5255 0.254074 18.5461 0.813038 19.5157C1.372 20.4852 2.13423 21.1996 3.0489 21.7609C4.01438 22.3222 5.03068 22.5773 6.14861 22.5773H24.8993C26.0173 22.5773 27.0336 22.3222 27.999 21.7609C28.4056 21.5568 28.7104 21.2506 29.0153 20.9955C29.5235 21.5057 30.1333 21.863 30.7939 22.1691C31.5053 22.4753 32.2167 22.6284 33.0297 22.6284H38.162H43.2435H43.2943C44.0566 22.6284 44.8188 22.4753 45.5302 22.1691C46.2416 21.863 46.8514 21.4547 47.4104 20.9445C47.9185 21.4547 48.5791 21.863 49.2905 22.1691C49.9511 22.4243 50.6625 22.5773 51.3739 22.5773H51.4755C52.5935 22.5773 53.6098 22.3222 54.5753 21.7609C55.5407 21.1996 56.2522 20.4342 56.8111 19.5157C57.3701 18.5461 57.6241 17.5255 57.6241 16.4029V10.3816L53.4065 11.4022V16.505H53.4573Z" fill="url(#paint3_linear_899_13425)"/>
<path d="M65.5512 11.1469C64.5857 11.7082 63.8743 12.4736 63.3153 13.3921C62.7563 14.3617 62.5023 15.3822 62.5023 16.5049C62.5023 17.6785 62.8071 18.6991 63.3661 19.6686C63.9759 20.6382 64.6873 21.3525 65.5512 21.8628C66.415 22.3731 67.2789 22.6793 68.0919 22.6793H69.159L63.8743 26.2002L66.2118 29.7212L74.7995 23.955V10.2794H68.6001C67.5329 10.3304 66.5166 10.5856 65.5512 11.1469ZM70.6835 18.495H68.7017C68.346 18.495 67.9903 18.3929 67.6854 18.2398C67.3805 18.0867 67.1264 17.8316 66.974 17.5254C66.8215 17.2193 66.7199 16.8621 66.7199 16.5049C66.7199 16.1477 66.8215 15.8415 66.974 15.5353C67.1264 15.2292 67.3805 14.974 67.6854 14.8209C67.9903 14.6168 68.2952 14.5658 68.7017 14.5658H70.6835V18.495Z" fill="url(#paint4_linear_899_13425)"/>
<path d="M136.591 13.3921C136.032 12.4226 135.269 11.7082 134.355 11.1469C133.389 10.5856 132.373 10.3304 131.255 10.3304H126.275L125.259 14.5658H131.255C131.611 14.5658 131.916 14.6679 132.271 14.8209C132.576 14.974 132.83 15.2292 132.983 15.5353C133.135 15.8415 133.237 16.1477 133.237 16.5049V18.495H123.531H118.399H113.267C112.911 18.495 112.606 18.3929 112.301 18.2398C111.996 18.0867 111.742 17.8316 111.59 17.5254C111.437 17.2193 111.336 16.8621 111.336 16.5049C111.336 15.3822 111.031 14.3617 110.472 13.3921C109.913 12.4226 109.151 11.7082 108.185 11.1469C107.22 10.5856 106.203 10.3304 105.085 10.3304H95.4305L101.325 6.91156L99.1908 3.69678L87.7574 10.3304V14.5658H105.085C105.441 14.5658 105.746 14.6679 106.051 14.8209C106.356 14.974 106.61 15.2292 106.762 15.5353C106.915 15.8415 107.016 16.1477 107.016 16.5049C107.016 16.8621 106.915 17.2193 106.762 17.5254C106.61 17.8316 106.356 18.0867 106.051 18.2398C105.746 18.3929 105.441 18.495 105.085 18.495H86.3346C85.9789 18.495 85.674 18.3929 85.3183 18.2398C84.9626 18.0867 84.7593 17.8316 84.6069 17.5254C84.4544 17.2193 84.3528 16.8621 84.3528 16.5049V10.4835L80.1352 11.5041V16.4538C80.1352 17.5765 80.3892 18.597 80.9482 19.5666C81.5072 20.5361 82.2694 21.2505 83.1841 21.8118C84.1495 22.3731 85.1658 22.6282 86.2838 22.6282H105.035C106.152 22.6282 107.169 22.3731 108.134 21.8118C108.541 21.6077 108.846 21.3015 109.151 21.0464C109.659 21.5567 110.268 21.9139 110.929 22.22C111.64 22.5262 112.352 22.6793 113.165 22.6793H118.297H123.43H137.454V16.4538C137.454 15.3822 137.15 14.3617 136.591 13.3921Z" fill="url(#paint5_linear_899_13425)"/>
<path d="M126.987 28.701H130.849V31.3545L134.152 30.2829V25.4352H126.987V28.701Z" fill="url(#paint6_linear_899_13425)"/>
<defs>
<linearGradient id="paint0_linear_899_13425" x1="164.721" y1="13.8723" x2="168.739" y2="23.6859" gradientUnits="userSpaceOnUse">
<stop stop-color="#0F4872"/>
<stop offset="0.4184" stop-color="#12609B"/>
<stop offset="1" stop-color="#1873C7"/>
</linearGradient>
<linearGradient id="paint1_linear_899_13425" x1="42.7935" y1="24.4151" x2="44.9666" y2="29.7136" gradientUnits="userSpaceOnUse">
<stop stop-color="#0F4872"/>
<stop offset="0.0705392" stop-color="#12558C"/>
<stop offset="0.1522" stop-color="#1460A2"/>
<stop offset="0.2487" stop-color="#1669B3"/>
<stop offset="0.368" stop-color="#176FBE"/>
<stop offset="0.5353" stop-color="#1872C5"/>
<stop offset="1" stop-color="#1873C7"/>
</linearGradient>
<linearGradient id="paint2_linear_899_13425" x1="53.202" y1="3.41721" x2="55.3753" y2="8.71629" gradientUnits="userSpaceOnUse">
<stop stop-color="#0F4872"/>
<stop offset="0.0705392" stop-color="#12558C"/>
<stop offset="0.1522" stop-color="#1460A2"/>
<stop offset="0.2487" stop-color="#1669B3"/>
<stop offset="0.368" stop-color="#176FBE"/>
<stop offset="0.5353" stop-color="#1872C5"/>
<stop offset="1" stop-color="#1873C7"/>
</linearGradient>
<linearGradient id="paint3_linear_899_13425" x1="23.8157" y1="1.72696" x2="35.3466" y2="29.8424" gradientUnits="userSpaceOnUse">
<stop stop-color="#0F4872"/>
<stop offset="0.0705392" stop-color="#12558C"/>
<stop offset="0.1522" stop-color="#1460A2"/>
<stop offset="0.2487" stop-color="#1669B3"/>
<stop offset="0.368" stop-color="#176FBE"/>
<stop offset="0.5353" stop-color="#1872C5"/>
<stop offset="1" stop-color="#1873C7"/>
</linearGradient>
<linearGradient id="paint4_linear_899_13425" x1="66.3503" y1="10.7725" x2="72.9949" y2="26.9737" gradientUnits="userSpaceOnUse">
<stop stop-color="#0F4872"/>
<stop offset="0.0705392" stop-color="#12558C"/>
<stop offset="0.1522" stop-color="#1460A2"/>
<stop offset="0.2487" stop-color="#1669B3"/>
<stop offset="0.368" stop-color="#176FBE"/>
<stop offset="0.5353" stop-color="#1872C5"/>
<stop offset="1" stop-color="#1873C7"/>
</linearGradient>
<linearGradient id="paint5_linear_899_13425" x1="102.968" y1="2.14215" x2="115.154" y2="31.8543" gradientUnits="userSpaceOnUse">
<stop stop-color="#0F4872"/>
<stop offset="0.0705392" stop-color="#12558C"/>
<stop offset="0.1522" stop-color="#1460A2"/>
<stop offset="0.2487" stop-color="#1669B3"/>
<stop offset="0.368" stop-color="#176FBE"/>
<stop offset="0.5353" stop-color="#1872C5"/>
<stop offset="1" stop-color="#1873C7"/>
</linearGradient>
<linearGradient id="paint6_linear_899_13425" x1="129.486" y1="24.4184" x2="132.221" y2="31.0854" gradientUnits="userSpaceOnUse">
<stop stop-color="#0F4872"/>
<stop offset="0.0705392" stop-color="#12558C"/>
<stop offset="0.1522" stop-color="#1460A2"/>
<stop offset="0.2487" stop-color="#1669B3"/>
<stop offset="0.368" stop-color="#176FBE"/>
<stop offset="0.5353" stop-color="#1872C5"/>
<stop offset="1" stop-color="#1873C7"/>
</linearGradient>
</defs>
</svg>
