<?xml version="1.0" encoding="utf-8"?>
<!-- Generator: Adobe Illustrator 25.3.1, SVG Export Plug-In . SVG Version: 6.00 Build 0)  -->
<svg version="1.1" id="Layer_1" xmlns="http://www.w3.org/2000/svg" xmlns:xlink="http://www.w3.org/1999/xlink" x="0px" y="0px"
	 viewBox="0 0 35.3 35" style="enable-background:new 0 0 35.3 35;" xml:space="preserve">
<style type="text/css">
	.st0{fill:#1873C7;fill-opacity:0.2;}
	.st1{fill:url(#SVGID_1_);}
	.st2{fill:#1873C7;}
</style>
<path class="st0" d="M34.5,0.8C34,0.3,33.3,0,32.6,0H3C2.3,0,1.6,0.3,1.1,0.8C0.6,1.3,0.4,2,0.4,2.7V3v12.4L5.7,13V5.4h25.5l4-1V3
	V2.7C35.2,2,35,1.3,34.5,0.8z"/>
<linearGradient id="SVGID_1_" gradientUnits="userSpaceOnUse" x1="15.9802" y1="22.1253" x2="19.9982" y2="12.3117" gradientTransform="matrix(1 0 0 -1 0 36)">
	<stop  offset="0" style="stop-color:#0F4872"/>
	<stop  offset="0.4184" style="stop-color:#12609B"/>
	<stop  offset="1" style="stop-color:#1873C7"/>
</linearGradient>
<path class="st1" d="M35,3.5c-0.2-0.1-5.1,1-5.1,1v4.1v21H5.7V19.5L1,15.1l-0.7,0.1v17.1c0,0.7,0.3,1.4,0.8,1.9
	C1.6,34.7,2.3,35,3,35h29.5c0.7,0,1.4-0.3,1.9-0.8c0.5-0.5,0.8-1.2,0.8-1.9V3.8C35.2,3.8,35.2,3.6,35,3.5z"/>
<path class="st2" d="M34,3.4c-0.8,0.2-2.9,0.5-3.5,0.7c-0.2,0-0.9,0.4-1.3,0.8c-2.6,2.3-17,15.1-17,15.1s-6-6.6-6.2-6.8
	c-0.2-0.2-0.3-0.3-0.5-0.2s-4.7,1.6-4.8,1.7c-0.2,0.1-0.3,0.1-0.3,0.4c0,0.3,0,0.9,0,0.6c0-0.3,0-0.7,0.4-0.5
	c0.2,0.2,10,10.5,10,10.5c0.5,0.5,1.2,0.8,1.9,0.8c0.7,0,1.4-0.3,2-0.8L29.9,8.6c0,0,4.6-4.7,4.8-4.9c0.3-0.3,0.6,0,0.6,0.2
	C35.2,3.4,34.9,3.3,34,3.4z"/>
</svg>
